<?xml version="1.0" encoding="UTF-8"?>
<svg version="1.1" xmlns="http://www.w3.org/2000/svg" width="512" height="512">
<path d="M0 0 C1.56795733 -0.0041815 3.13591163 -0.00966347 4.7038604 -0.01631981 C8.97818898 -0.03068606 13.2523233 -0.02655753 17.52666211 -0.019153 C22.14982201 -0.01440164 26.77294106 -0.02694849 31.39608765 -0.03717041 C40.4398697 -0.05432525 49.48358218 -0.05520532 58.52737628 -0.04995751 C65.88154053 -0.04590843 73.23568429 -0.04736811 80.58984756 -0.05270576 C82.16266515 -0.0538284 82.16266515 -0.0538284 83.76725683 -0.05497371 C85.89769093 -0.05650526 88.02812502 -0.05804361 90.1585591 -0.05958868 C110.11610286 -0.07330169 130.07360738 -0.06788443 150.03115024 -0.05640347 C168.26876698 -0.04647207 186.50628226 -0.0594123 204.74388336 -0.08333766 C223.49467366 -0.10774992 242.24541674 -0.11733131 260.99622262 -0.11068493 C271.5136136 -0.10719748 282.03092658 -0.10939347 292.54830551 -0.12693596 C301.50125891 -0.14168453 310.45407935 -0.14225869 319.40703021 -0.12486505 C323.9699625 -0.1163746 328.53265755 -0.11415747 333.09557724 -0.1295166 C337.28165474 -0.1434322 341.46729328 -0.13851319 345.65334584 -0.11927737 C347.15859652 -0.11553799 348.66388295 -0.11837905 350.16910158 -0.12888902 C363.35481128 -0.21432791 375.73047734 1.93058641 387.48635864 8.20018005 C388.15425415 8.547099 388.82214966 8.89401794 389.51028442 9.25144958 C394.85627237 12.10064919 399.62859271 15.2925217 404.11135864 19.38768005 C404.94151489 20.13791443 405.77167114 20.8881488 406.62698364 21.66111755 C420.55836025 34.88341212 429.89096916 53.24814901 430.48050213 72.64127827 C430.49289612 74.84889288 430.48932119 77.05663878 430.47212219 79.26422119 C430.47468547 80.49222732 430.47724874 81.72023344 430.47988969 82.98545188 C430.48394222 86.35394967 430.47469982 89.72191168 430.45955551 93.09034407 C430.44649756 96.73772887 430.45099144 100.3850996 430.45326233 104.03250122 C430.45482895 110.33855851 430.44548407 116.64452208 430.42854881 122.9505558 C430.40407991 132.06780183 430.39634551 141.18500294 430.39258484 150.30227824 C430.38603268 165.09745409 430.36610518 179.89258008 430.337677 194.68772888 C430.31010436 209.05263521 430.2888865 223.41752796 430.27615356 237.78245544 C430.27536539 238.66916472 430.27457722 239.555874 430.27376517 240.46945325 C430.26984982 244.91818815 430.26605875 249.36692315 430.26232946 253.81565821 C430.23127206 290.67303401 430.17847008 327.53035314 430.11135864 364.38768005 C409.52630604 364.45797156 388.94127343 364.51076646 368.35612488 364.54311657 C358.79663057 364.55854104 349.23721113 364.57954536 339.67776489 364.61399841 C331.33919184 364.64403683 323.00067305 364.66328712 314.66204739 364.66994554 C310.25275893 364.67383349 305.84362561 364.68287693 301.43438721 364.70487022 C297.27130541 364.72546444 293.1084404 364.73146834 288.9453125 364.7270031 C287.429767 364.72781818 285.91421309 364.73364572 284.39871216 364.74529648 C261.17552604 364.91484168 241.62209885 359.46145566 224.42385864 343.01268005 C220.90252056 339.32163893 217.75975436 335.31706317 214.56448364 331.3447113 C212.00643179 328.26119975 209.34112984 325.31795363 206.61135864 322.38768005 C203.19843193 318.72179179 199.92534283 314.99053595 196.79885864 311.07518005 C175.12124239 284.23067677 148.23665191 263.57747267 113.11135864 259.38768005 C102.37191635 258.36695841 91.68409711 258.2195832 80.9067688 258.18235779 C79.12147304 258.17275514 77.33617944 258.16274376 75.55088806 258.15235901 C70.74816524 258.12556203 65.94543284 258.10441768 61.14267778 258.08435702 C56.1071862 258.06234005 51.07172326 258.03502896 46.03625488 258.00830078 C36.52046646 257.95858462 27.00466196 257.91356849 17.48884237 257.87027842 C6.6471089 257.82072475 -4.1945958 257.76587443 -15.03630137 257.71059883 C-37.32038784 257.59710276 -59.60450184 257.49019449 -81.88864136 257.38768005 C-81.98226739 232.74347181 -82.05270992 208.0992904 -82.09589005 183.45493984 C-82.1164762 172.01099117 -82.14452109 160.56715329 -82.19039917 149.12327576 C-82.23038803 139.14361701 -82.25610282 129.16403856 -82.26499534 119.18430191 C-82.27018972 113.90478417 -82.28231554 108.62549601 -82.31156158 103.34605217 C-82.33892139 98.36627381 -82.34704519 93.38681736 -82.34107208 88.40697098 C-82.34216319 86.58945142 -82.34999358 84.77191992 -82.36546326 82.95446587 C-82.48048211 68.73134749 -80.89199264 55.7928287 -74.07614136 43.01268005 C-73.72922241 42.34478455 -73.38230347 41.67688904 -73.02487183 40.98875427 C-70.17567222 35.64276632 -66.98379971 30.87044599 -62.88864136 26.38768005 C-62.13840698 25.5575238 -61.38817261 24.72736755 -60.61520386 23.87205505 C-44.14503839 6.5186315 -23.43311447 -0.10280401 0 0 Z M249.33401489 89.54393005 C240.58227633 101.83644834 237.37606408 115.62297116 239.57229614 130.51268005 C242.69490793 144.61953802 250.38806039 155.78692495 262.35354614 163.7822113 C274.65419538 170.94307084 287.68450815 173.37536942 301.69729614 170.7040863 C316.07180145 166.58976828 327.64222885 158.40530627 335.11135864 145.38768005 C342.10492187 129.8864832 343.03088376 115.94232099 337.18557739 99.8368988 C331.51528305 86.9086277 320.79066375 77.94706768 308.11135864 72.38768005 C286.35309456 65.07710157 263.97283432 71.78430736 249.33401489 89.54393005 Z " fill="#20B7F5" transform="translate(81.88864135742188,-0.3876800537109375)"/>
<path d="M0 0 C24.88768405 -0.11705677 49.77532653 -0.20509742 74.6632309 -0.25906086 C86.22040538 -0.2847885 97.77740832 -0.31983466 109.33447266 -0.37719727 C119.41339092 -0.42719915 129.49218488 -0.4593305 139.57122374 -0.47044247 C144.9028078 -0.47693288 150.2340364 -0.49207279 155.56550598 -0.52865028 C160.59540104 -0.56287548 165.62479806 -0.57299997 170.65479851 -0.56553841 C172.48964594 -0.5669012 174.32451202 -0.57667424 176.15925789 -0.59602737 C197.35085493 -0.8083797 215.33934606 5.12663437 231 20 C234.95573633 24.19041993 238.64783524 28.60871426 242.34277344 33.02832031 C245.02405391 36.21836467 247.76401408 39.35689541 250.5 42.5 C251.5771395 43.74191299 252.65396163 44.98410131 253.73046875 46.2265625 C254.26591309 46.8443457 254.80135742 47.46212891 255.35302734 48.09863281 C257.61319346 50.70790849 259.87100054 53.31922126 262.12866211 55.93066406 C263.77747265 57.83455374 265.431486 59.73382487 267.0859375 61.6328125 C268.7864899 63.58730827 270.45527447 65.55343774 272.1015625 67.5546875 C290.36400048 89.39190057 319.28603606 101.76966618 347.11637211 104.78092289 C353.3616661 105.25539498 359.63258111 105.18137505 365.89282227 105.20532227 C367.49019109 105.21491579 369.08755745 105.22492671 370.68492126 105.23532104 C374.9982845 105.26221653 379.3116585 105.28330863 383.62505841 105.30332303 C388.14141094 105.32527799 392.65773085 105.3526199 397.17405701 105.37937927 C405.7160707 105.42917814 414.25810262 105.47416417 422.80015177 105.51740164 C432.52933839 105.56688385 442.25849227 105.62176105 451.98764718 105.67708123 C471.99173424 105.79070455 491.99585261 105.89758593 512 106 C512.10043639 110.85223655 512.17218965 115.70384113 512.21972656 120.55688477 C512.23958568 122.20054693 512.26668256 123.84414096 512.30175781 125.48754883 C512.5977162 139.73272217 511.01325802 152.57627561 504.1875 165.375 C503.84058105 166.04289551 503.49366211 166.71079102 503.13623047 167.39892578 C500.28703086 172.74491373 497.09515836 177.51723406 493 182 C492.24976563 182.83015625 491.49953125 183.6603125 490.7265625 184.515625 C477.04724852 198.92852995 458.47058762 207.85386654 438.50767708 208.38031673 C435.70859611 208.40863405 432.91051223 208.39996029 430.11135864 208.38768005 C428.54340131 208.39186156 426.97544702 208.39734352 425.40749824 208.40399987 C421.13316966 208.41836612 416.85903535 208.41423759 412.58469653 208.40683305 C407.96153663 208.4020817 403.33841758 208.41462855 398.715271 208.42485046 C389.67148894 208.4420053 380.62777646 208.44288538 371.58398236 208.43763756 C364.22981811 208.43358849 356.87567436 208.43504816 349.52151108 208.44038582 C347.94869349 208.44150845 347.94869349 208.44150845 346.34410181 208.44265376 C344.21366772 208.44418531 342.08323363 208.44572366 339.95279954 208.44726873 C319.99525578 208.46098175 300.03775127 208.45556448 280.08020841 208.44408352 C261.84259166 208.43415212 243.60507638 208.44709235 225.36747529 208.47101771 C206.61668498 208.49542997 187.8659419 208.50501137 169.11513603 208.49836498 C158.59774504 208.49487753 148.08043206 208.49707352 137.56305313 208.51461601 C128.61009973 208.52936458 119.6572793 208.52993875 110.70432843 208.5125451 C106.14139614 208.50405465 101.57870109 208.50183753 97.0157814 208.51719666 C92.8297039 208.53111225 88.64406536 208.52619325 84.4580128 208.50695742 C82.95276213 208.50321804 81.44747569 208.50605911 79.94225706 208.51656907 C66.75654736 208.60200796 54.3808813 206.45709364 42.625 200.1875 C41.95710449 199.84058105 41.28920898 199.49366211 40.60107422 199.13623047 C35.25508627 196.28703086 30.48276594 193.09515836 26 189 C25.16984375 188.24976563 24.3396875 187.49953125 23.484375 186.7265625 C10.21427091 174.13188287 1.17411998 156.93818676 -0.2714138 138.54683495 C-0.36556826 134.85755791 -0.37164671 131.17935862 -0.34057617 127.48901367 C-0.33972744 126.08809935 -0.34020982 124.6871837 -0.34190369 123.28627014 C-0.34275549 119.52670875 -0.32526384 115.76744144 -0.30418181 112.00794768 C-0.28527722 108.06287534 -0.28365382 104.11779437 -0.28010559 100.17268372 C-0.27082523 92.72153295 -0.24626649 85.27051609 -0.21605712 77.81942397 C-0.18238736 69.32837195 -0.16599566 60.83731313 -0.15097082 52.34621084 C-0.11971277 34.89739676 -0.06703136 17.4487126 0 0 Z " fill="#20ACF4" transform="translate(0,304)"/>
</svg>
