<?xml version="1.0" encoding="UTF-8"?>
<svg version="1.1" xmlns="http://www.w3.org/2000/svg" width="256" height="256">
<path d="M0 0 C1.06815948 -0.00671722 2.13631897 -0.01343445 3.23684692 -0.02035522 C6.7417679 -0.03923475 10.24649629 -0.04325464 13.75146484 -0.04541016 C16.20991085 -0.05184601 18.6683561 -0.05857494 21.12680054 -0.06558228 C26.27270277 -0.07753068 31.41853801 -0.0812657 36.56445312 -0.08007812 C43.12063544 -0.0798753 49.67638252 -0.10715103 56.23246193 -0.14162254 C61.30978319 -0.16399052 66.38700145 -0.1679126 71.46436691 -0.16685867 C73.87940339 -0.16920076 76.29444333 -0.17794463 78.70943069 -0.19352341 C100.31658311 -0.31984076 119.07001903 1.23938755 135.54833984 16.80224609 C139.3336633 20.91700896 142.16520252 25.39625762 144.83740234 30.29052734 C145.23701172 31.01884766 145.63662109 31.74716797 146.04833984 32.49755859 C153.04507842 46.67516045 152.29719967 62.34310782 152.27099609 77.72021484 C152.27556713 80.08326364 152.28087542 82.44631111 152.28688049 84.80935669 C152.2957743 89.74307686 152.29343122 94.67663483 152.28344727 99.61035156 C152.27196454 105.89292699 152.29217836 112.17493973 152.3213644 118.45744133 C152.33982284 123.33232097 152.33941475 128.20706817 152.33372688 133.08197403 C152.33357484 135.39652419 152.3395212 137.71108401 152.35201836 140.02560043 C152.45024452 161.19583148 150.54340461 182.24247509 134.98974609 198.33349609 C121.96249689 210.17859927 106.97552791 214.59695511 89.67480469 214.58105469 C88.6066452 214.58777191 87.53848572 214.59448914 86.43795776 214.60140991 C82.93303679 214.62028944 79.4283084 214.62430932 75.92333984 214.62646484 C73.46489384 214.63290069 71.00644859 214.63962963 68.54800415 214.64663696 C63.40210192 214.65858537 58.25626668 214.66232039 53.11035156 214.66113281 C46.55416925 214.66092999 39.99842217 214.68820572 33.44234276 214.72267723 C28.36502149 214.74504521 23.28780324 214.74896729 18.21043777 214.74791336 C15.79540129 214.75025545 13.38036136 214.75899932 10.96537399 214.77457809 C-10.25878678 214.89865644 -29.00122296 213.46095211 -45.35791016 198.22412109 C-61.79164228 180.61655096 -62.63500769 159.64421995 -62.59619141 136.89599609 C-62.60076274 134.53534293 -62.60607111 132.17469109 -62.61207581 129.81404114 C-62.62097014 124.8845171 -62.61862633 119.95515537 -62.60864258 115.02563477 C-62.59716621 108.75212542 -62.61736366 102.47918009 -62.64655972 96.20574474 C-62.66503066 91.33511376 -62.6646075 86.46461518 -62.6589222 81.5939579 C-62.65877027 79.28302533 -62.6647066 76.97208304 -62.67721367 74.66118431 C-62.77776416 53.03902261 -61.02395824 32.74552327 -45.31494141 16.28271484 C-32.41362473 4.34138725 -17.23559836 -0.01584057 0 0 Z " fill="#DADADA" transform="translate(83.16259765625,20.70947265625)"/>
<path d="M0 0 C8.24522814 4.77141891 15.41409321 10.82601915 22.234375 17.4453125 C24.39020028 19.52350609 26.61581362 21.32578299 29.03125 23.09375 C33.72777306 26.74918427 37.64819877 30.14374742 39.01025391 36.14208984 C41.0684501 55.25739638 36.75351663 75.28719486 25.50390625 91.00390625 C15.69306855 102.73727175 2.3209526 109.09666072 -12.6171875 111.37890625 C-16.3407035 111.64810698 -20.04755519 111.67286374 -23.77978516 111.66943359 C-24.84794464 111.67615082 -25.91610413 111.68286804 -27.01663208 111.68978882 C-30.52155306 111.70866834 -34.02628144 111.71268823 -37.53125 111.71484375 C-39.989696 111.7212796 -42.44814125 111.72800854 -44.90658569 111.73501587 C-50.05248793 111.74696428 -55.19832316 111.75069929 -60.34423828 111.74951172 C-66.90042059 111.7493089 -73.45616767 111.77658462 -80.01224709 111.81105614 C-85.08956835 111.83342412 -90.1667866 111.8373462 -95.24415207 111.83629227 C-97.65918855 111.83863436 -100.07422848 111.84737823 -102.48921585 111.862957 C-123.77919949 111.98742016 -142.31097817 110.4898752 -158.79296875 95.35546875 C-162.17992396 91.68566289 -164.91902317 87.56949273 -167.6171875 83.37890625 C-163.94917742 78.28444781 -160.03999979 73.49128197 -155.9296875 68.75390625 C-151.78821186 63.98009013 -147.79852876 59.12601691 -143.9296875 54.12890625 C-125.20720255 30.15098693 -125.20720255 30.15098693 -110.23046875 28.04296875 C-98.43002928 27.84262173 -89.4100185 33.40164903 -79.70703125 39.453125 C-75.53954761 42.05055791 -73.57381821 43.00975016 -68.6171875 42.37890625 C-58.69592817 37.90425324 -53.66804427 28.7239462 -48.1796875 19.81640625 C-37.54849084 2.97966946 -20.19652281 -9.56501988 0 0 Z " fill="#A4A4A4" transform="translate(196.6171875,123.62109375)"/>
<path d="M0 0 C8.11651186 -0.64231389 15.20197775 2.97844954 21.32421875 8.12890625 C26.96748753 14.08237585 29.1366401 20.47978828 29.671875 28.578125 C29.41382559 36.24434294 26.28074012 43.07200468 20.8828125 48.5078125 C12.95127487 54.90079099 6.21196118 56.19473362 -3.890625 55.265625 C-11.10526186 53.59917361 -16.41625042 50.15609153 -20.890625 44.265625 C-25.1510421 37.31646905 -27.04979711 30.42441329 -25.890625 22.265625 C-22.64971456 13.0521796 -18.10343886 7.28905704 -9.765625 2.453125 C-6.42489692 1.07325905 -3.5520222 0.49904444 0 0 Z " fill="#A4A4A4" transform="translate(92.890625,65.734375)"/>
</svg>
